<svg xmlns="http://www.w3.org/2000/svg" viewBox="0 0 306 259" width="306" height="259">
	<style>
		tspan { white-space:pre }
		.shp0 { fill: #545454 } 
	</style>
	<g id="Layer">
		<path id="Layer" class="shp0" d="M281 50.45C271.58 54.63 261.46 57.45 250.83 58.72C261.68 52.22 270.01 41.93 273.93 29.66C263.78 35.68 252.54 40.05 240.58 42.41C230.99 32.2 217.35 25.82 202.24 25.82C173.23 25.82 149.72 49.34 149.72 78.34C149.72 82.46 150.18 86.47 151.08 90.31C107.43 88.12 68.73 67.21 42.82 35.44C38.3 43.19 35.71 52.22 35.71 61.84C35.71 80.06 44.98 96.14 59.08 105.56C50.47 105.28 42.37 102.92 35.29 98.99C35.28 99.21 35.28 99.43 35.28 99.65C35.28 125.09 53.39 146.32 77.41 151.15C73.01 152.35 68.37 152.99 63.58 152.99C60.19 152.99 56.9 152.66 53.69 152.05C60.38 172.91 79.77 188.1 102.76 188.52C84.78 202.61 62.14 211 37.53 211C33.29 211 29.11 210.76 25 210.27C48.24 225.17 75.85 233.87 105.51 233.87C202.12 233.87 254.94 153.84 254.94 84.43C254.94 82.16 254.89 79.89 254.79 77.64C265.05 70.23 273.96 60.98 281 50.45Z" />
	</g>
</svg>