<svg xmlns="http://www.w3.org/2000/svg" viewBox="0 0 208 160" width="208" height="160">
	<style>
		tspan { white-space:pre }
		.shp0 { fill: #545454 } 
		.shp1 { fill: #ffffff } 
	</style>
	<path id="XMLID_142_" class="shp0" d="M179.4 42.5C177.6 35.8 172.3 30.5 165.5 28.7C153.2 25.5 104 25.5 104 25.5C104 25.5 55.7 25.3 43.4 28.5C36.6 30.3 30.1 35.8 28.3 42.5C25 54.7 25.3 80 25.3 80C25.3 80 25 105.3 28.3 117.5C30.1 124.2 36.7 129.7 43.4 131.5C55.7 134.8 104 134.5 104 134.5C104 134.5 152.3 134.7 164.6 131.5C171.4 129.7 177.7 124.2 179.5 117.5C182.8 105.4 182.8 80 182.8 80C182.8 80 182.7 54.7 179.4 42.5Z" />
	<path id="XMLID_824_" class="shp1" d="M88.9 104.2L128.2 80L88.9 55.8L88.9 104.2Z" />
</svg>